<svg xmlns="http://www.w3.org/2000/svg" xmlns:xlink="http://www.w3.org/1999/xlink" version="1.1" x="0px" y="0px" viewBox="0 0 100 100" enable-background="new 0 0 100 100" xml:space="preserve" height="100px" width="100px">
<g id="Guides">
</g>
<g id="Artwork">
	<path d="M50,41c-5,0-9,4-9,9s4,9,9,9s9-4,9-9S55,41,50,41z M50,55c-2.8,0-5-2.2-5-5s2.2-5,5-5s5,2.2,5,5S52.8,55,50,55z M94.6,48.7   c-0.2-0.3-5.1-6.3-12.9-12.3C71.1,28.3,60.2,24,50,24s-21.1,4.3-31.6,12.4C10.5,42.5,5.6,48.5,5.4,48.7c-0.6,0.7-0.6,1.8,0,2.5   c0.2,0.3,5.1,6.3,12.9,12.3C28.9,71.7,39.8,76,50,76s21.1-4.3,31.6-12.4c7.9-6.1,12.7-12.1,12.9-12.3   C95.1,50.5,95.1,49.5,94.6,48.7z M50,72c-12.1,0-22-9.9-22-22s9.9-22,22-22s22,9.9,22,22S62.1,72,50,72z M9.6,50   c2.7-3,10.1-10.8,20.1-16.2C26.1,38.2,24,43.9,24,50c0,6.2,2.2,11.8,5.7,16.3C19.8,60.8,12.3,53,9.6,50z M70.3,66.2   C73.8,61.8,76,56.1,76,50c0-6.2-2.2-11.8-5.7-16.3C80.2,39.2,87.7,47,90.4,50C87.7,53,80.2,60.8,70.3,66.2z"/>
</g>
</svg>